HIERARCHY
ROOT Pelvis
{
	OFFSET 0.000000 0.000000 0.000000
	CHANNELS 6 Xposition Yposition Zposition Xrotation Yrotation Zrotation
	JOINT LeftUpLeg_virtual
	{
		OFFSET 0.000000 0.000000 0.000000
		CHANNELS 3 Xrotation Yrotation Zrotation
		JOINT LeftUpLeg
		{
			OFFSET 18.735201 -5.666702 -4.541200
			CHANNELS 3 Xrotation Yrotation Zrotation
			JOINT LeftLeg
			{
				OFFSET -0.021200 -31.938179 0.493100
				CHANNELS 3 Xrotation Yrotation Zrotation
				JOINT LeftFoot
				{
					OFFSET 0.021200 -31.938179 -4.336299
					CHANNELS 3 Xrotation Yrotation Zrotation
					JOINT LeftToeBase
					{
						OFFSET 0.943001 -26.722000 15.023500
						CHANNELS 3 Xrotation Yrotation Zrotation
						End Site
						{
							OFFSET 0 0 0
						}
					}
				}
			}
		}
	}
	JOINT RightUpLeg_virtual
	{
		OFFSET 0.000000 0.000000 0.000000
		CHANNELS 3 Xrotation Yrotation Zrotation
		JOINT RightUpLeg
		{
			OFFSET -18.735201 -5.666702 -4.541200
			CHANNELS 3 Xrotation Yrotation Zrotation
			JOINT RightLeg
			{
				OFFSET 0.018946 -31.938133 0.493100
				CHANNELS 3 Xrotation Yrotation Zrotation
				JOINT RightFoot
				{
					OFFSET -0.018946 -31.938126 -4.336299
					CHANNELS 3 Xrotation Yrotation Zrotation
					JOINT RightToeBase
					{
						OFFSET -0.943001 -26.722004 15.023500
						CHANNELS 3 Xrotation Yrotation Zrotation
						End Site
						{
							OFFSET 0 0 0
						}
					}
				}
			}
		}
	}
	JOINT Hips_virtual
	{
		OFFSET 0.000000 0.000000 0.000000
		CHANNELS 3 Xrotation Yrotation Zrotation
		JOINT Hips
		{
			OFFSET -0.000000 -0.000000 -0.000000
			CHANNELS 3 Xrotation Yrotation Zrotation
			JOINT Spine
			{
				OFFSET 0.000000 10.199997 -0.299500
				CHANNELS 3 Xrotation Yrotation Zrotation
				JOINT Spine1
				{
					OFFSET 0.000000 11.900002 -1.516600
					CHANNELS 3 Xrotation Yrotation Zrotation
					JOINT Spine2
					{
						OFFSET 0.000000 13.600006 -2.842500
						CHANNELS 3 Xrotation Yrotation Zrotation
						JOINT Neck_virtual
						{
							OFFSET 0.000000 0.000000 0.000000
							CHANNELS 3 Xrotation Yrotation Zrotation
							JOINT Neck
							{
								OFFSET 0.000000 9.624100 -2.890100
								CHANNELS 3 Xrotation Yrotation Zrotation
								JOINT Head
								{
									OFFSET 0.000000 14.068802 -1.351900
									CHANNELS 3 Xrotation Yrotation Zrotation
									End Site
									{
										OFFSET 0 0 0
									}
								}
							}
						}
						JOINT LeftShoulder_virtual
						{
							OFFSET 0.000000 0.000000 0.000000
							CHANNELS 3 Xrotation Yrotation Zrotation
							JOINT LeftShoulder
							{
								OFFSET 15.263000 10.923401 -0.547700
								CHANNELS 3 Xrotation Yrotation Zrotation
								JOINT LeftArm
								{
									OFFSET 25.438599 -2.830597 -13.032500
									CHANNELS 3 Xrotation Yrotation Zrotation
									JOINT LeftForeArm
									{
										OFFSET 29.960503 0.000000 0.000000
										CHANNELS 3 Xrotation Yrotation Zrotation
										JOINT LeftHand
										{
											OFFSET 27.849251 0.000000 0.000000
											CHANNELS 3 Xrotation Yrotation Zrotation
											End Site
											{
												OFFSET 0 0 0
											}
										}
									}
								}
							}
						}
						JOINT RightShoulder_virtual
						{
							OFFSET 0.000000 0.000000 0.000000
							CHANNELS 3 Xrotation Yrotation Zrotation
							JOINT RightShoulder
							{
								OFFSET -15.263000 10.923401 -0.547700
								CHANNELS 3 Xrotation Yrotation Zrotation
								JOINT RightArm
								{
									OFFSET -25.438599 -2.830597 -13.032500
									CHANNELS 3 Xrotation Yrotation Zrotation
									JOINT RightForeArm
									{
										OFFSET -29.960503 0.000000 0.000000
										CHANNELS 3 Xrotation Yrotation Zrotation
										JOINT RightHand
										{
											OFFSET -27.849251 0.000000 0.000000
											CHANNELS 3 Xrotation Yrotation Zrotation
											End Site
											{
												OFFSET 0 0 0
											}
										}
									}
								}
							}
						}
					}
				}
			}
		}
	}
}
MOTION
Frames: 10
Frame Time: 0.03333333
3.612576 92.513977 11.354814 0.000000 0.000000 0.000000 3.145542 -34.690568 -7.716426 -34.250598 4.567471 5.743691 39.319903 4.473708 0.003640 -10.239480 4.465987 -2.615312 0.000000 0.000000 0.000000 12.625902 -25.444770 5.318453 -16.213785 -13.791628 -13.333447 32.951264 -2.557296 -2.033720 -17.211100 -5.278926 5.879328 0.000000 0.000000 0.000000 -9.928758 -26.986742 -1.712925 -17.429043 -12.097987 -7.001036 8.299400 -3.840546 -1.755033 2.824854 -2.010727 -0.704561 0.000000 0.000000 0.000000 3.530087 -1.793090 -0.264688 0.038169 -0.199814 -0.443272 0.000000 0.000000 0.000000 3.939543 -3.232284 -0.239762 1.421618 -12.586354 -10.199293 -23.261782 -7.149466 -42.273291 -4.472160 -47.098150 -2.805453 0.000000 0.000000 0.000000 4.274944 -0.657434 1.503960 3.020944 6.606468 10.485794 -6.815639 -3.147563 51.984580 -3.805076 50.546661 6.746539 0.000000 0.000000 0.000000 
3.933181 92.528412 11.744951 0.000000 0.000000 0.000000 3.032004 -35.121994 -7.957734 -34.299400 4.533839 5.498157 39.349451 4.929038 -0.074493 -10.288728 4.945216 -2.440519 0.000000 0.000000 0.000000 12.554165 -25.970363 5.301288 -16.411754 -13.912361 -13.456227 33.413388 -2.669494 -2.084357 -16.836903 -5.329229 5.730002 0.000000 0.000000 0.000000 -10.023607 -27.484893 -1.797222 -17.738420 -13.055813 -7.328687 8.320493 -3.883107 -1.772820 2.813102 -2.024167 -0.707487 0.000000 0.000000 0.000000 3.510721 -1.794331 -0.258126 0.026350 -0.196958 -0.441739 0.000000 0.000000 0.000000 3.925606 -3.250278 -0.241831 1.411983 -12.630170 -10.229025 -23.237661 -7.164629 -42.394236 -4.491140 -47.143892 -2.853182 0.000000 0.000000 0.000000 4.287740 -0.664645 1.495096 3.042333 6.569396 10.476993 -6.804717 -3.173560 51.846549 -3.749435 50.527205 6.627038 0.000000 0.000000 0.000000 
4.252251 92.548088 12.122228 0.000000 0.000000 0.000000 2.929576 -35.582509 -8.189156 -34.337147 4.492197 5.259960 39.380419 5.392656 -0.176268 -10.345857 5.441673 -2.296265 0.000000 0.000000 0.000000 12.470101 -26.580538 5.326423 -16.655222 -14.059038 -13.551877 33.913378 -2.862243 -2.121060 -16.442026 -5.462162 5.552233 0.000000 0.000000 0.000000 -10.115713 -27.977191 -1.881975 -18.039723 -13.999788 -7.666956 8.346453 -3.923070 -1.789336 2.802065 -2.036250 -0.708732 0.000000 0.000000 0.000000 3.491497 -1.794870 -0.253163 0.014945 -0.193916 -0.441599 0.000000 0.000000 0.000000 3.912992 -3.266309 -0.241812 1.405323 -12.666532 -10.256366 -23.223748 -7.181535 -42.532213 -4.517627 -47.204476 -2.909941 0.000000 0.000000 0.000000 4.301882 -0.671470 1.487171 3.064329 6.533536 10.472449 -6.796434 -3.206100 51.705174 -3.690060 50.491446 6.499980 0.000000 0.000000 0.000000 
4.569007 92.572624 12.484359 0.000000 0.000000 0.000000 2.840575 -36.059485 -8.407445 -34.361083 4.444438 5.031751 39.408385 5.860398 -0.299684 -10.409641 5.950565 -2.181847 0.000000 0.000000 0.000000 12.376972 -27.268731 5.397010 -16.941874 -14.230820 -13.617132 34.450299 -3.129861 -2.150659 -16.025821 -5.668669 5.337013 0.000000 0.000000 0.000000 -10.205217 -28.464690 -1.967170 -18.332588 -14.930778 -8.014346 8.377917 -3.959622 -1.804785 2.792293 -2.046514 -0.708506 0.000000 0.000000 0.000000 3.473108 -1.794641 -0.249454 0.004325 -0.190734 -0.442568 0.000000 0.000000 0.000000 3.901332 -3.280243 -0.239940 1.401295 -12.695463 -10.281556 -23.216213 -7.203117 -42.688218 -4.549448 -47.282217 -2.975005 0.000000 0.000000 0.000000 4.316773 -0.677486 1.480791 3.086120 6.500508 10.474769 -6.790677 -3.237624 51.566060 -3.628214 50.447234 6.369480 0.000000 0.000000 0.000000 
4.881696 92.600838 12.830399 0.000000 0.000000 0.000000 2.768276 -36.541908 -8.608097 -34.367828 4.391783 4.816923 39.429077 6.329340 -0.441602 -10.478265 6.468062 -2.094086 0.000000 0.000000 0.000000 12.278732 -28.021814 5.514026 -17.267002 -14.424982 -13.649920 35.019473 -3.464315 -2.180844 -15.589849 -5.937177 5.075234 0.000000 0.000000 0.000000 -10.292550 -28.949811 -2.052805 -18.618633 -15.853147 -8.368994 8.416169 -3.991989 -1.819657 2.784682 -2.054510 -0.707192 0.000000 0.000000 0.000000 3.456582 -1.793556 -0.246547 -0.005014 -0.187444 -0.444311 0.000000 0.000000 0.000000 3.890198 -3.292073 -0.236619 1.399350 -12.717275 -10.305541 -23.208807 -7.233803 -42.863115 -4.583182 -47.380066 -3.047079 0.000000 0.000000 0.000000 4.331719 -0.682228 1.476538 3.106722 6.472196 10.486418 -6.786108 -3.260457 51.433817 -3.564196 50.401810 6.238646 0.000000 0.000000 0.000000 
5.187082 92.630714 13.160554 0.000000 0.000000 0.000000 2.716100 -37.022603 -8.786574 -34.354311 4.334666 4.618693 39.439548 6.797386 -0.598224 -10.549379 6.990984 -2.028377 0.000000 0.000000 0.000000 12.180592 -28.821786 5.676733 -17.622745 -14.637490 -13.649164 35.613856 -3.855101 -2.218102 -15.137297 -6.254624 4.761356 0.000000 0.000000 0.000000 -10.378566 -29.436456 -2.139020 -18.901708 -16.775110 -8.729460 8.462904 -4.019489 -1.834759 2.780373 -2.059828 -0.705358 0.000000 0.000000 0.000000 3.443115 -1.791525 -0.244015 -0.012523 -0.184079 -0.446520 0.000000 0.000000 0.000000 3.879084 -3.301874 -0.232494 1.398730 -12.732374 -10.330268 -23.193063 -7.279205 -43.057209 -4.614171 -47.501374 -3.124125 0.000000 0.000000 0.000000 4.345830 -0.685207 1.474809 3.124925 6.450599 10.509123 -6.780183 -3.268330 51.311578 -3.497320 50.360385 6.109250 0.000000 0.000000 0.000000 
5.480197 92.659554 13.475466 0.000000 0.000000 0.000000 2.686438 -37.499139 -8.939866 -34.318883 4.272917 4.439030 39.439165 7.262626 -0.765873 -10.620173 7.516396 -1.980281 0.000000 0.000000 0.000000 12.089488 -29.649230 5.883322 -17.997740 -14.864114 -13.614739 36.226077 -4.289807 -2.265753 -14.671950 -6.608000 4.396521 0.000000 0.000000 0.000000 -10.464576 -29.929944 -2.226215 -19.187834 -17.708222 -9.095550 8.519799 -4.041566 -1.851096 2.780512 -2.062138 -0.703684 0.000000 0.000000 0.000000 3.433794 -1.788504 -0.241537 -0.017707 -0.180695 -0.448954 0.000000 0.000000 0.000000 3.867361 -3.309756 -0.228497 1.398441 -12.741163 -10.358864 -23.158832 -7.345551 -43.269440 -4.636593 -47.649172 -3.203025 0.000000 0.000000 0.000000 4.357919 -0.685959 1.475667 3.139235 6.437601 10.543337 -6.769304 -3.257752 51.201133 -3.426155 50.325158 5.981829 0.000000 0.000000 0.000000 
5.754649 92.684616 13.775183 0.000000 0.000000 0.000000 2.679398 -37.973147 -9.067848 -34.262292 4.206214 4.277794 39.429811 7.722884 -0.941670 -10.687703 8.041311 -1.946816 0.000000 0.000000 0.000000 12.013900 -30.488742 6.131321 -18.378140 -15.101820 -13.548030 36.850008 -4.755888 -2.322688 -14.197624 -6.986570 3.989673 0.000000 0.000000 0.000000 -10.552212 -30.436266 -2.315037 -19.484402 -18.665838 -9.468596 8.587838 -4.057825 -1.869628 2.785894 -2.061212 -0.702814 0.000000 0.000000 0.000000 3.429228 -1.784538 -0.238931 -0.020274 -0.177386 -0.451440 0.000000 0.000000 0.000000 3.854203 -3.315839 -0.225826 1.397245 -12.744081 -10.395441 -23.095327 -7.438820 -43.496366 -4.643684 -47.825398 -3.279181 0.000000 0.000000 0.000000 4.366422 -0.684132 1.478777 3.147885 6.434609 10.587971 -6.749340 -3.229094 51.103602 -3.349178 50.294870 5.856339 0.000000 0.000000 0.000000 
6.003563 92.704063 14.058161 0.000000 0.000000 0.000000 2.691903 -38.448122 -9.174046 -34.188304 4.134656 4.132374 39.414942 8.175707 -1.123825 -10.749587 8.562748 -1.926850 0.000000 0.000000 0.000000 11.962782 -31.335050 6.417388 -18.750056 -15.350142 -13.453215 37.481011 -5.243384 -2.383147 -13.718546 -7.384439 3.556238 0.000000 0.000000 0.000000 -10.643147 -30.961084 -2.406229 -19.798593 -19.660478 -9.850979 8.666693 -4.068043 -1.890948 2.796616 -2.056938 -0.703199 0.000000 0.000000 0.000000 3.429218 -1.779798 -0.236112 -0.020261 -0.174279 -0.453834 0.000000 0.000000 0.000000 3.838609 -3.320282 -0.225856 1.393723 -12.741901 -10.444577 -22.992567 -7.563813 -43.731157 -4.628164 -48.030078 -3.346212 0.000000 0.000000 0.000000 4.369450 -0.679594 1.483399 3.149009 6.442146 10.640408 -6.716509 -3.187172 51.020526 -3.265690 50.265227 5.733172 0.000000 0.000000 0.000000 
6.221002 92.717857 14.320503 0.000000 0.000000 0.000000 2.717267 -38.926297 -9.265631 -34.103855 4.059318 3.997893 39.397631 8.618893 -1.311428 -10.805119 9.078120 -1.920501 0.000000 0.000000 0.000000 11.943738 -32.197310 6.736411 -19.102864 -15.611794 -13.338873 38.114983 -5.747481 -2.437502 -13.240527 -7.802463 3.115194 0.000000 0.000000 0.000000 -10.738664 -31.508100 -2.500337 -20.135066 -20.700468 -10.245112 8.754305 -4.072091 -1.915000 2.811857 -2.049275 -0.704963 0.000000 0.000000 0.000000 3.432579 -1.774553 -0.233033 -0.018096 -0.171489 -0.455977 0.000000 0.000000 0.000000 3.819527 -3.323336 -0.229976 1.386425 -12.736188 -10.510457 -22.843271 -7.723198 -43.963148 -4.582988 -48.260648 -3.396057 0.000000 0.000000 0.000000 4.365013 -0.672535 1.488463 3.141005 6.459535 10.696766 -6.668537 -3.141005 50.954741 -3.176778 50.230000 5.614196 0.000000 0.000000 0.000000 
